<?xml version="1.0" encoding="UTF-8" standalone="no"?>
<!-- Created with Inkscape (http://www.inkscape.org/) -->

<svg
   width="16"
   height="16"
   viewBox="0 0 16 16"
   version="1.1"
   id="SVGRoot"
   sodipodi:docname="blob-favicon.svg"
   inkscape:version="1.2.2 (732a01da63, 2022-12-09)"
   inkscape:export-filename="blob-favicon.svg"
   inkscape:export-xdpi="12000"
   inkscape:export-ydpi="12000"
   xmlns:inkscape="http://www.inkscape.org/namespaces/inkscape"
   xmlns:sodipodi="http://sodipodi.sourceforge.net/DTD/sodipodi-0.dtd"
   xmlns="http://www.w3.org/2000/svg"
   xmlns:svg="http://www.w3.org/2000/svg">
  <sodipodi:namedview
     id="namedview38106"
     pagecolor="#ffffff"
     bordercolor="#eeeeee"
     borderopacity="1"
     inkscape:showpageshadow="0"
     inkscape:pageopacity="0"
     inkscape:pagecheckerboard="0"
     inkscape:deskcolor="#505050"
     inkscape:document-units="px"
     showgrid="true"
     inkscape:zoom="64"
     inkscape:cx="3.015625"
     inkscape:cy="6.9296875"
     inkscape:window-width="1278"
     inkscape:window-height="1360"
     inkscape:window-x="-7"
     inkscape:window-y="0"
     inkscape:window-maximized="0"
     inkscape:current-layer="layer1">
    <inkscape:grid
       type="xygrid"
       id="grid38112"
       empspacing="4"
       visible="false"
       originx="-4.4071955"
       originy="-3.1020067" />
  </sodipodi:namedview>
  <defs
     id="defs38101">
    <inkscape:path-effect
       effect="fillet_chamfer"
       id="path-effect38233-8"
       is_visible="true"
       lpeversion="1"
       nodesatellites_param="F,0,0,1,0,0.8465761,0,1 @ F,0,0,1,0,0.8465761,0,1 @ F,0,1,1,0,4.6543811,0,1 @ F,0,0,1,0,0.8465761,0,1 @ F,0,0,1,0,0.8465761,0,1 @ F,0,0,1,0,0.8465761,0,1"
       unit="px"
       method="auto"
       mode="F"
       radius="0"
       chamfer_steps="1"
       flexible="false"
       use_knot_distance="true"
       apply_no_radius="true"
       apply_with_radius="true"
       only_selected="false"
       hide_knots="false" />
    <inkscape:path-effect
       effect="perspective-envelope"
       up_left_point="2.7947843,-1.8608486"
       up_right_point="16.978583,0.42645844"
       down_left_point="2.7947843,15.170137"
       down_right_point="16.978583,12.88283"
       id="path-effect38900-0"
       is_visible="true"
       lpeversion="1"
       deform_type="perspective"
       horizontal_mirror="true"
       vertical_mirror="false"
       overflow_perspective="false" />
    <inkscape:path-effect
       effect="powerstroke"
       id="path-effect43145-2"
       is_visible="true"
       lpeversion="1"
       offset_points="0.2131783,0.21244335 | 0.50747498,0.12277641 | 0.77266261,0.095111448"
       not_jump="false"
       sort_points="true"
       interpolator_type="CentripetalCatmullRom"
       interpolator_beta="0.2"
       start_linecap_type="round"
       linejoin_type="round"
       miter_limit="4"
       scale_width="1"
       end_linecap_type="zerowidth" />
    <inkscape:path-effect
       effect="perspective-envelope"
       up_left_point="11.587992,1.7960542"
       up_right_point="12.519783,1.9620196"
       down_left_point="11.587992,3.0705676"
       down_right_point="12.519783,2.9046022"
       id="path-effect48281-5"
       is_visible="true"
       lpeversion="1"
       deform_type="perspective"
       horizontal_mirror="true"
       vertical_mirror="false"
       overflow_perspective="false" />
    <inkscape:path-effect
       effect="perspective-envelope"
       up_left_point="15.743304,-1.4583602"
       up_right_point="16.714663,-1.2161362"
       down_left_point="15.743304,0.22873532"
       down_right_point="16.714663,-0.013488677"
       id="path-effect48283-0"
       is_visible="true"
       lpeversion="1"
       deform_type="perspective"
       horizontal_mirror="true"
       vertical_mirror="false"
       overflow_perspective="false" />
  </defs>
  <g
     inkscape:label="Layer 1"
     inkscape:groupmode="layer"
     id="layer1"
     transform="translate(-2.1064993,1.8424882)"
     style="display:inline">
    <path
       id="path38228"
       style="opacity:1;fill:#8f479a;fill-opacity:1;stroke-width:16.0743;stroke-linecap:square"
       d="m 15.929183,3.993631 1.029465,5.008574 c 0.06862,0.3338305 -0.04359,0.6973896 -0.281515,0.9080833 l -2.975877,2.6352787 c -1.609097,1.424931 -3.87722,1.806315 -5.8047491,0.816139 L 3.3480844,11.025171 C 2.9130764,10.801706 2.7035084,10.331749 2.8320039,9.8604299 L 4.6379518,3.2362466 C 4.7660515,2.7663794 5.0797584,2.3780145 5.5104183,2.1508159 l 4.9430737,-2.60776475 c 0.326232,-0.17210662 0.738692,-0.1050783 1.054373,0.16608704 l 3.876029,3.32945441 c 0.273376,0.2348259 0.467316,0.575684 0.545289,0.9550384 z"
       sodipodi:nodetypes="ccccccc"
       inkscape:original-d="M 19.291678,2.0739976 21.508617,10.880786 11.99855,17.075633 2.4884857,10.880784 4.7054244,2.0739965 11.998551,-2.6336058 Z"
       inkscape:path-effect="#path-effect38233-8;#path-effect38900-0" />
    <path
       id="path7982"
       style="opacity:1;fill:#6b2a75;fill-opacity:1;stroke-width:16.0743;stroke-linecap:square"
       d="m 10.846734,-0.54756633 c -0.136938,-8.7112e-4 -0.270242,0.0292101 -0.392579,0.09375 L 5.5107961,2.1555587 C 5.0801366,2.3827572 4.7658487,2.7696762 4.6377492,3.2395431 L 2.8311087,9.8645433 c -0.1284953,0.4713187 0.082571,0.9405987 0.5175782,1.1640627 l 4.5468748,2.337891 c 1.2446035,0.639355 2.6311233,0.70313 3.8906253,0.287108 -0.653468,-0.04682 -1.305385,-0.220416 -1.9218751,-0.537108 L 5.3174367,10.778606 C 4.8824291,10.555142 4.6713633,10.085861 4.7998586,9.6145431 l 1.8066406,-6.625 C 6.7345987,2.5196762 7.0488866,2.1327572 7.4795461,1.9055586 l 3.6691569,-2.31483578 0.15556,-0.0214843 c -0.08793,-0.0640094 -0.280047,-0.11144664 -0.363745,-0.11680477 z"
       sodipodi:nodetypes="ccccccccccccccccc" />
    <rect
       style="opacity:1;fill:#1f241c;fill-opacity:1;stroke-width:7.34612;stroke-linecap:square"
       id="rect41186"
       width="0.46343437"
       height="1.206678"
       x="10.360787"
       y="4.3591805"
       rx="0.18824799"
       transform="rotate(2.8247805)" />
    <rect
       style="opacity:1;fill:#1f241c;fill-opacity:1;stroke-width:7.34612;stroke-linecap:square"
       id="rect41292"
       width="0.46343437"
       height="1.206678"
       x="13.842515"
       y="3.9523244"
       rx="0.18824799"
       transform="rotate(2.8247805)" />
    <path
       style="fill:#7ee7ab;fill-opacity:1;fill-rule:nonzero;stroke:none;stroke-width:0.147855px;stroke-linecap:butt;stroke-linejoin:miter;stroke-opacity:1"
       d="m 11.686251,1.8767253 c 0.03133,-0.1207729 0.103928,-0.3395511 0.260329,-0.6290968 0.08609,-0.1593872 0.182358,-0.31259848 0.285648,-0.46287 0.04345,-0.0632086 0.08951,-0.12799928 0.13854,-0.19404261 0.32201,-0.43371584 0.730766,-0.86186058 1.20908,-1.16963237 0.01419,-0.00913 0.02838,-0.0181143 0.04258,-0.0269528 0.226286,-0.14088754 0.4625,-0.25028159 0.699983,-0.32717158 0.259192,-0.0839188 0.517625,-0.12833558 0.76898,-0.13644138 0.04673,-0.00151 0.09325,-0.00177 0.13958,-8.138e-4 0.198668,0.0041 0.41089,0.031362 0.633056,0.1021696 0.349898,0.11151834 0.611394,0.29672406 0.768456,0.42943491 -0.139084,-0.14567278 -0.378431,-0.37360769 -0.726187,-0.53671861 -0.222712,-0.1044605 -0.447997,-0.1626998 -0.663346,-0.1847313 -0.0502,-0.00514 -0.100812,-0.00838 -0.151768,-0.00978 -0.275125,-0.00759 -0.555867,0.038418 -0.835798,0.1252115 -0.25574,0.079293 -0.508513,0.19183656 -0.756351,0.32654751 -0.01558,0.008468 -0.03118,0.0170482 -0.04681,0.0257438 -0.524157,0.29161046 -1.017017,0.68171703 -1.400907,1.12644871 -0.05831,0.067546 -0.112825,0.13494889 -0.163403,0.2017906 -0.119131,0.15743962 -0.229564,0.32866977 -0.324514,0.50544204 -0.175299,0.3263612 -0.250219,0.5815464 -0.288413,0.7287714 a 0.21244335,0.21244335 90 0 0 0.411272,0.1066944 z"
       id="path43143"
       sodipodi:nodetypes="cc"
       inkscape:path-effect="#path-effect43145-2"
       inkscape:original-d="m 11.480615,1.8233781 c 0.4556,-1.75619085 3.25489,-4.1472453 5.151865,-2.36206959" />
    <path
       id="path45872"
       style="fill:#5fba85;fill-opacity:1;fill-rule:nonzero;stroke:none;stroke-width:0.147855px;stroke-linecap:butt;stroke-linejoin:miter;stroke-opacity:1"
       d="m 14.986678,-1.2714884 c -0.241877,0.00491 -0.487017,0.05197 -0.731958,0.1279155 -0.25574,0.079293 -0.508989,0.1921819 -0.756827,0.3268928 -0.01564,0.00846 -0.03057,0.016173 -0.04619,0.024872 -0.524154,0.29161426 -1.016066,0.68162705 -1.399955,1.12635812 -0.0583,0.0675462 -0.112869,0.13568982 -0.163448,0.20253143 C 11.76917,0.69452089 11.659912,0.86486139 11.564961,1.0416334 11.389663,1.3679943 11.311794,1.6228115 11.2736,1.7700362 a 0.21244335,0.21244335 0 0 0 0.241617,0.2593824 0.21244335,0.21244335 0 0 1 -0.106598,-0.2380633 c 0.03819,-0.1472248 0.116062,-0.4020419 0.291362,-0.7284025 0.09495,-0.17677282 0.204208,-0.3471128 0.323339,-0.50455226 0.05058,-0.0668416 0.105142,-0.13498499 0.163447,-0.20253142 0.38389,-0.44473129 0.875796,-0.83474869 1.399953,-1.12635912 0.01564,-0.0087 0.03061,-0.016409 0.04619,-0.024872 0.247838,-0.1347103 0.501089,-0.2475996 0.75683,-0.3268929 0.279928,-0.086794 0.559873,-0.1354998 0.834998,-0.1279137 0.05096,0.0014 0.102584,0.00553 0.152778,0.010657 -0.04529,-0.00775 -0.09047,-0.016755 -0.135024,-0.021319 -0.05019,-0.00513 -0.101841,-0.00925 -0.152797,-0.010657 -0.03439,-9.481e-4 -0.06849,-7.011e-4 -0.103038,0 z m 0.643125,0.2451696 c 0.07688,0.015135 0.154907,0.03148 0.234511,0.056851 0.349894,0.1115188 0.610426,0.29722467 0.767485,0.42993526 -0.06832,-0.0715681 -0.159455,-0.16199326 -0.277145,-0.25582916 -0.0022,-0.00119 -0.005,-0.00236 -0.0071,-0.00355 -0.103808,-0.054536 -0.219804,-0.1083078 -0.348212,-0.1492332 -0.126182,-0.040216 -0.250429,-0.062312 -0.369531,-0.07817 z" />
    <path
       sodipodi:type="star"
       style="opacity:1;fill:#8f479a;fill-opacity:1;stroke:none;stroke-width:7.80472;stroke-linecap:square;stroke-opacity:1"
       id="path45613"
       inkscape:flatsided="false"
       sodipodi:sides="7"
       sodipodi:cx="12.230469"
       sodipodi:cy="2.40625"
       sodipodi:r1="0.66477442"
       sodipodi:r2="0.40551239"
       sodipodi:arg1="0.71053832"
       sodipodi:arg2="1.1593373"
       inkscape:rounded="0.12"
       inkscape:randomized="0"
       d="m 12.437849,2.7432774 c -0.01545,0.025978 -0.183081,-0.043144 -0.207875,-0.027194 -0.02522,0.016224 -0.09835,0.2589693 -0.127751,0.262887 -0.02998,0.00399 -0.0939,-0.2359478 -0.122049,-0.2505232 -0.02866,-0.014838 -0.267945,0.092188 -0.290513,0.062142 -0.02286,-0.030441 0.127465,-0.2736971 0.12085,-0.3119329 -0.0066,-0.038387 -0.232699,-0.2046205 -0.222185,-0.2444053 0.01045,-0.039552 0.275929,-0.04083 0.298282,-0.068159 0.02205,-0.026962 0.0027,-0.3002762 0.03356,-0.3100526 0.03028,-0.00959 0.180853,0.205635 0.21028,0.2105232 0.02887,0.0048 0.170794,-0.141092 0.193576,-0.1215876 0.02242,0.019197 -0.0056,0.2484608 0.0096,0.2762802 0.015,0.027525 0.181966,0.070102 0.186094,0.1006077 0.0041,0.030411 -0.140401,0.1407436 -0.146776,0.1722343 -0.0064,0.031635 0.08021,0.223493 0.06493,0.2491803 z"
       inkscape:transform-center-x="-0.01026012"
       inkscape:transform-center-y="0.0043691503"
       transform="matrix(1.3243149,-0.10617293,0.10617293,1.3243149,0.13945489,-2.5380114)"
       inkscape:path-effect="#path-effect48281-5" />
    <path
       id="path45836"
       style="opacity:1;fill:#47244d;fill-opacity:1;stroke-width:10.369;stroke-linecap:square"
       inkscape:transform-center-x="-0.027024425"
       inkscape:transform-center-y="-0.026164876"
       d="m 16.124532,-1.3338523 c -0.03688,0.014543 0.0093,0.36940998 -0.01504,0.40628728 -0.02479,0.0374801 -0.356541,0.0638142 -0.365993,0.1173556 -0.0094,0.0538519 0.289563,0.24455165 0.301044,0.29283462 0.01154,0.047908 -0.15113,0.38000609 -0.119988,0.41479126 0.0079,0.0087997 0.03382,0.0027501 0.06814,-0.0103864 -0.0029,-0.0707184 0.128692,-0.35032562 0.11855,-0.39369201 -0.01099,-0.0471986 -0.296608,-0.23225385 -0.287544,-0.28486903 0.0089,-0.052338 0.325979,-0.0800146 0.349739,-0.11684578 0.02137,-0.033134 -0.01293,-0.32425912 0.0076,-0.38639472 -0.02662,-0.026274 -0.04712,-0.042799 -0.05654,-0.039086 z m 0.473346,0.089671 c -0.03314,9.987e-4 -0.137509,0.1265697 -0.186834,0.1597948 0.01525,0.015351 0.02713,0.026915 0.03358,0.027613 0.02472,0.00268 0.11771,-0.1061258 0.170247,-0.1481915 3.27e-4,-2.616e-4 -4.71e-4,-0.0024 -1.47e-4,-0.00265 -0.0025,-0.018018 -0.0065,-0.03171 -0.01127,-0.035805 -0.0017,-0.00145 -0.0031,-8.313e-4 -0.0057,-7.725e-4 z m -0.293419,1.02329861 c -0.006,0.001778 -0.01344,0.004991 -0.02099,0.008032 0.04086,0.0616451 0.115619,0.27971989 0.145422,0.27061507 0.0062,-0.001908 0.01367,-0.01360209 0.02175,-0.03299721 -0.04011,-0.0709053 -0.100023,-0.23757167 -0.125139,-0.24777597 -0.0042,-0.001668 -0.01127,-8.0543e-4 -0.02106,0.002131 z m 0.340205,-0.0610274 c 0.02332,0.003327 0.04836,0.008056 0.07,0.0104099 -0.02434,-0.003519 -0.04932,-0.008643 -0.07,-0.0104099 z"
       inkscape:path-effect="#path-effect48283-0"
       inkscape:original-d="m 16.175627,-1.4283357 c -0.04883,0.02613 0.01255,0.4167171 -0.02005,0.461438 -0.03263,0.04472 -0.423072,0.1014618 -0.433075,0.1559154 -0.0099,0.054459 0.334169,0.25013896 0.348713,0.30354956 0.01473,0.0533985 -0.183179,0.39418154 -0.146848,0.43595807 0.0093,0.010697 0.04027,0.00875 0.08202,5.5984e-4 -0.0036,-0.0770812 0.165041,-0.37265004 0.151523,-0.42207485 -0.01455,-0.0534148 -0.358721,-0.24909382 -0.348713,-0.30354942 0.0099,-0.054459 0.40043,-0.1111969 0.433073,-0.1559153 0.02982,-0.040849 -0.01783,-0.3698471 0.0105,-0.4464186 -0.03673,-0.023 -0.06456,-0.036227 -0.07722,-0.029453 z m 0.753138,-0.031864 c -0.06179,0.012262 -0.246354,0.2048513 -0.328641,0.258046 0.02512,0.015992 0.04488,0.028077 0.05569,0.027616 0.04189,-0.00178 0.206738,-0.1662739 0.305266,-0.2383489 6.26e-4,-4.577e-4 -9.03e-4,-0.0031 -2.83e-4,-0.00354 -0.0047,-0.023557 -0.01237,-0.040707 -0.02147,-0.044621 -0.0033,-0.00137 -0.0058,-9.22e-5 -0.01072,8.578e-4 z m -0.496628,1.3195015 c -0.0091,0.001127 -0.02028,0.003731 -0.0316,0.006094 0.06194,0.0817216 0.180086,0.36869849 0.22901,0.36661511 0.01039,-4.4245e-4 0.02281,-0.0128983 0.0364,-0.0349979 -0.06665,-0.10066128 -0.162638,-0.31994164 -0.201653,-0.33672671 -0.0064,-0.002725 -0.01728,-0.002877 -0.03217,-9.802e-4 z m 0.586673,-0.0185176 c 0.04615,0.008917 0.09672,0.0203009 0.141244,0.0278852 -0.05003,-0.009737 -0.100355,-0.0216182 -0.141244,-0.0278852 z" />
  </g>
</svg>
