<?xml version="1.0" encoding="UTF-8" standalone="no"?>
<!-- Created with Inkscape (http://www.inkscape.org/) -->

<svg
   xmlns:dc="http://purl.org/dc/elements/1.1/"
   xmlns:cc="http://creativecommons.org/ns#"
   xmlns:rdf="http://www.w3.org/1999/02/22-rdf-syntax-ns#"
   xmlns:svg="http://www.w3.org/2000/svg"
   xmlns="http://www.w3.org/2000/svg"
   xmlns:sodipodi="http://sodipodi.sourceforge.net/DTD/sodipodi-0.dtd"
   xmlns:inkscape="http://www.inkscape.org/namespaces/inkscape"
   width="1000"
   height="1000"
   viewBox="0 0 264.58334 264.58333"
   version="1.1"
   id="svg8"
   inkscape:version="0.92.4 (5da689c313, 2019-01-14)"
   sodipodi:docname="svg-coffee-block-dude.svg">
  <defs
     id="defs2" />
  <sodipodi:namedview
     id="base"
     pagecolor="#ffffff"
     bordercolor="#666666"
     borderopacity="1.0"
     inkscape:pageopacity="0.0"
     inkscape:pageshadow="2"
     inkscape:zoom="0.69968216"
     inkscape:cx="218.58926"
     inkscape:cy="227.4124"
     inkscape:document-units="mm"
     inkscape:current-layer="layer2"
     showgrid="false"
     units="px"
     inkscape:window-width="2560"
     inkscape:window-height="1377"
     inkscape:window-x="1912"
     inkscape:window-y="-8"
     inkscape:window-maximized="1" />
  <metadata
     id="metadata5">
    <rdf:RDF>
      <cc:Work
         rdf:about="">
        <dc:format>image/svg+xml</dc:format>
        <dc:type
           rdf:resource="http://purl.org/dc/dcmitype/StillImage" />
        <dc:title></dc:title>
      </cc:Work>
    </rdf:RDF>
  </metadata>
  <g
     inkscape:groupmode="layer"
     id="layer7"
     inkscape:label="arm2"
     style="display:inline">
    <ellipse
       style="opacity:0.99999999;fill:#afc6e9;fill-opacity:1;stroke:#222222;stroke-width:1.07499993;stroke-linecap:square;stroke-linejoin:miter;stroke-miterlimit:4;stroke-dasharray:none;stroke-dashoffset:0;stroke-opacity:1;paint-order:normal"
       id="path1097"
       cx="122.02035"
       cy="140.04723"
       rx="36.498863"
       ry="10.02716"
       transform="rotate(24.547445)" />
  </g>
  <g
     inkscape:groupmode="layer"
     id="layer2"
     inkscape:label="body"
     style="display:inline">
    <rect
       style="opacity:0.99999999;fill:#afc6e9;fill-opacity:1;stroke:#222222;stroke-width:3.6299808;stroke-linecap:round;stroke-linejoin:round;stroke-miterlimit:4;stroke-dasharray:none;stroke-dashoffset:38.35955811;stroke-opacity:1;paint-order:normal"
       id="rect848"
       width="155.35703"
       height="158.35246"
       x="66.050072"
       y="58.848633"
       ry="2.6123102"
       transform="matrix(0.99998837,0.00482222,-0.04259371,0.99909248,0,0)" />
  </g>
  <g
     inkscape:groupmode="layer"
     id="layer5"
     inkscape:label="mug bottom" />
  <g
     inkscape:groupmode="layer"
     id="layer3"
     inkscape:label="mug"
     style="display:inline">
    <rect
       style="opacity:0.99999999;fill:#217867;fill-opacity:1;stroke:#222222;stroke-width:1.07499993;stroke-linecap:butt;stroke-linejoin:miter;stroke-miterlimit:4;stroke-dasharray:none;stroke-dashoffset:0;stroke-opacity:1;paint-order:normal"
       id="rect890"
       width="20.766842"
       height="24.321527"
       x="137.51016"
       y="173.09698"
       ry="2.6123104" />
    <ellipse
       style="opacity:0.98999999;fill:#217867;fill-opacity:1;stroke:#222222;stroke-width:1.07499993;stroke-linecap:butt;stroke-linejoin:miter;stroke-miterlimit:4;stroke-dasharray:none;stroke-dashoffset:0;stroke-opacity:1;paint-order:normal"
       id="path908"
       cx="147.74524"
       cy="174.16277"
       rx="10.102793"
       ry="2.05797" />
    <path
       id="ellipse927"
       transform="scale(0.26458333)"
       style="opacity:0.98999999;fill:#217867;fill-opacity:1;stroke:#222222;stroke-width:4.32841253;stroke-linecap:butt;stroke-linejoin:miter;stroke-miterlimit:4;stroke-dasharray:none;stroke-dashoffset:0;stroke-opacity:1;paint-order:normal"
       d="m 558.27344,732.16602 a 38.274388,8.8066864 0 0 0 -38.27539,8.80664 38.274388,8.8066864 0 0 0 38.27539,8.80664 38.274388,8.8066864 0 0 0 38.27344,-8.80664 38.274388,8.8066864 0 0 0 -38.27344,-8.80664 z" />
    <rect
       style="opacity:0.98999999;fill:#217867;fill-opacity:1;stroke:none;stroke-width:0.39862743;stroke-linecap:square;stroke-linejoin:miter;stroke-miterlimit:4;stroke-dasharray:none;stroke-dashoffset:0;stroke-opacity:1;paint-order:normal"
       id="rect1062"
       width="17.678415"
       height="3.6320555"
       x="139.01234"
       y="192.7462"
       ry="1.8160278" />
    <rect
       style="opacity:0.98999999;fill:#217867;fill-opacity:1;stroke:none;stroke-width:0.375;stroke-linecap:square;stroke-linejoin:miter;stroke-miterlimit:4;stroke-dasharray:none;stroke-dashoffset:0;stroke-opacity:1;paint-order:normal"
       id="rect1072"
       width="1.6043457"
       height="3.2755389"
       x="138.04056"
       y="193.10638"
       ry="0.80217284" />
    <ellipse
       style="opacity:0.87;fill:#552200;fill-opacity:1;stroke:none;stroke-width:0.43848312;stroke-linecap:square;stroke-linejoin:miter;stroke-miterlimit:4;stroke-dasharray:none;stroke-dashoffset:0;stroke-opacity:1;paint-order:normal"
       id="path1087"
       cx="147.82025"
       cy="174.49417"
       rx="9.004509"
       ry="1.2183272" />
    <rect
       style="opacity:1;fill:#217867;fill-opacity:1;stroke:#222222;stroke-width:0.21996634;stroke-linecap:square;stroke-linejoin:miter;stroke-miterlimit:4;stroke-dasharray:none;stroke-dashoffset:0;stroke-opacity:1;paint-order:normal"
       id="rect1107"
       width="1.7266624"
       height="5.4367118"
       x="160.60233"
       y="182.54512"
       ry="0.50078803" />
  </g>
  <g
     inkscape:groupmode="layer"
     id="layer6"
     inkscape:label="steam">
    <path
       style="opacity:0.84;fill:#e3dbdb;fill-opacity:1;stroke:none;stroke-width:0.375;stroke-linecap:square;stroke-linejoin:miter;stroke-miterlimit:4;stroke-dasharray:none;stroke-dashoffset:0;stroke-opacity:1;paint-order:normal"
       id="path1075"
       d="m 142.12226,174.32211 c -0.15075,-0.0747 -0.29406,-0.16392 -0.44593,-0.23615 -0.0948,-0.0388 -0.19125,-0.0715 -0.28593,-0.1102 -0.0826,-0.039 -0.15069,-0.10124 -0.23156,-0.14264 -0.0735,-0.0248 -0.13849,-0.068 -0.20163,-0.11234 -0.079,-0.0403 -0.14168,-0.1038 -0.21592,-0.15151 -0.0737,-0.0519 -0.12534,-0.1265 -0.18748,-0.1903 -0.0615,-0.0548 -0.109,-0.12065 -0.15857,-0.18558 -0.0457,-0.0592 -0.0855,-0.12316 -0.13093,-0.1825 -0.0447,-0.0662 -0.0772,-0.14124 -0.10566,-0.21587 -0.0255,-0.0706 -0.0458,-0.1433 -0.0712,-0.2139 -0.0239,-0.0711 -0.0486,-0.14181 -0.0724,-0.213 -0.043,-0.0774 -0.0594,-0.16311 -0.0711,-0.24984 -0.001,-0.0888 -0.0221,-0.17447 -0.0382,-0.26128 -0.0153,-0.0898 -0.0181,-0.18094 -0.02,-0.27178 -0.001,-0.0944 -0.001,-0.18889 -0.001,-0.28333 1.4e-4,-0.0946 2.1e-4,-0.18919 2.5e-4,-0.28379 -0.002,-0.0823 0.0319,-0.15385 0.0643,-0.22694 0.0419,-0.0661 0.0749,-0.13688 0.11181,-0.20568 0.035,-0.0709 0.0874,-0.12969 0.13697,-0.19026 0.0446,-0.066 0.0938,-0.12797 0.14592,-0.18812 0.0562,-0.0481 0.085,-0.11562 0.11917,-0.1793 0.0287,-0.0641 0.0885,-0.0998 0.13177,-0.15139 0.0355,-0.0587 0.0714,-0.11734 0.1164,-0.1693 0.0507,-0.054 0.0943,-0.11348 0.13978,-0.17185 0.043,-0.0573 0.0891,-0.11284 0.14023,-0.16315 0.0505,-0.0545 0.1026,-0.10756 0.15426,-0.16109 0.0586,-0.0562 0.11731,-0.11241 0.1743,-0.17033 0.058,-0.0536 0.1078,-0.11587 0.17282,-0.16124 0.24047,-0.18255 0.51918,-0.31501 0.77716,-0.46513 0.18775,-0.10926 -0.37678,0.21628 -0.56518,0.32442 0.23895,-0.34303 0.49262,-0.2821 0.75878,-0.41986 0.0246,-0.0128 0.047,-0.0297 0.0715,-0.0426 -1.40724,0.80929 0.0616,-0.0514 0.20962,-0.12685 -0.0478,0.0439 0.18592,-0.10033 0.11805,-0.0611 -0.94544,0.54642 -0.71187,0.4236 -0.50878,0.28518 0.0514,-0.0471 0.10562,-0.0892 0.16102,-0.13113 0.0674,-0.039 0.121,-0.0956 0.17875,-0.14671 0.0648,-0.0532 0.13181,-0.10391 0.20247,-0.14919 0.0684,-0.0508 0.13827,-0.0995 0.20654,-0.15046 0.0714,-0.0515 0.13289,-0.11506 0.19968,-0.17213 0.0756,-0.0678 0.14193,-0.14597 0.2082,-0.22285 0.061,-0.0752 0.12447,-0.14806 0.18825,-0.22084 0.0542,-0.0622 0.0885,-0.13806 0.13596,-0.20509 0.0552,-0.0754 0.10102,-0.15643 0.14046,-0.24099 0.0466,-0.11199 0.10326,-0.21935 0.15026,-0.33108 0.0379,-0.10205 0.0683,-0.20658 0.1028,-0.30975 0.029,-0.0933 0.0625,-0.18471 0.0819,-0.28066 0.0248,-0.0932 0.0428,-0.18804 0.0669,-0.28142 0.0262,-0.0917 0.0365,-0.18634 0.0423,-0.2812 0.01,-0.083 0.0307,-0.16372 0.0407,-0.24673 0.009,-0.0903 0.009,-0.18118 0.0101,-0.27185 -2.7e-4,-0.0884 0.005,-0.17652 -0.0107,-0.26373 -0.0181,-0.0788 -0.0227,-0.15925 -0.0433,-0.23738 -0.016,-0.0754 -0.0583,-0.14099 -0.0875,-0.21153 -0.0444,-0.0731 -0.0688,-0.15249 -0.083,-0.23615 -0.0126,-0.0869 -0.0383,-0.16599 -0.0785,-0.24343 -0.046,-0.0808 -0.0537,-0.17277 -0.0732,-0.26142 -0.0262,-0.0802 -0.0329,-0.16429 -0.0474,-0.24684 -0.009,-0.0805 -0.0569,-0.14429 -0.0927,-0.21396 -0.0229,-0.0735 -0.054,-0.11528 -0.10625,-0.16792 -0.0587,-0.0379 -0.10023,-0.091 -0.14437,-0.14358 -0.0385,-0.0578 -0.0898,-0.10448 -0.12625,-0.16373 -0.0428,-0.0533 -0.0659,-0.11832 -0.10729,-0.17251 -0.0539,-0.0386 -0.0883,-0.0967 -0.13439,-0.14338 -0.0437,-0.0494 -0.087,-0.10033 -0.13639,-0.14417 -0.0459,-0.0541 -0.10252,-0.0973 -0.15024,-0.14963 -0.0537,-0.0518 -0.10364,-0.10665 -0.15969,-0.15613 -0.0621,-0.0602 -0.12445,-0.12105 -0.18151,-0.18617 -0.0561,-0.073 -0.0694,-0.16214 -0.0776,-0.25118 -2.5e-4,-0.0863 -0.006,-0.17026 -0.023,-0.25487 -0.0178,-0.0873 -0.0226,-0.17634 -0.0258,-0.26515 -0.002,-0.0943 -0.002,-0.18858 -0.002,-0.28287 -0.001,-0.0948 0.0288,-0.17382 0.0801,-0.25098 0.0376,-0.0624 0.0651,-0.13045 0.1021,-0.19309 0.0434,-0.0534 0.10899,-0.0788 0.15475,-0.12981 0.19298,-0.19692 0.50299,-0.30294 0.70771,-0.43787 0.18443,-0.12155 -0.38227,0.22143 -0.57402,0.33108 -0.0101,0.006 0.0193,-0.0129 0.029,-0.0194 0.0534,-0.0268 0.0885,-0.0758 0.13009,-0.11708 0,0 0.65331,-0.26317 0.65331,-0.26317 v 0 c -0.0518,0.0346 -0.086,0.0804 -0.12568,0.12673 -0.2533,0.13311 0.13879,-0.0735 -0.66087,0.3849 -0.19153,0.1098 0.38066,-0.22373 0.57133,-0.33502 0.01,-0.006 -0.0193,0.0108 -0.0278,0.0178 -0.0588,0.0479 0.0116,0.004 -0.0522,0.0408 -0.0679,0.0664 0.0221,-0.025 -0.0434,0.054 -0.0278,0.0336 -0.0753,0.053 -0.11288,0.0723 -0.0566,0.0433 -0.0735,0.12192 -0.10719,0.18255 -0.0187,0.0341 -0.045,0.0587 -0.0653,0.0906 -0.0241,0.038 -0.0227,0.0841 -0.0323,0.12642 -9e-5,0.0936 -2.7e-4,0.18721 0.001,0.2808 0.002,0.0852 0.005,0.1707 0.0211,0.25466 0.0172,0.0873 0.0308,0.17286 0.0264,0.26238 0.005,0.0737 0.009,0.15034 0.0558,0.21097 0.0563,0.0622 0.11457,0.12329 0.17718,0.17915 0.0571,0.051 0.10793,0.1081 0.1629,0.16131 0.0488,0.0493 0.10229,0.0938 0.14859,0.14568 0.0483,0.0473 0.0946,0.0968 0.13871,0.14795 0.0459,0.0507 0.0872,0.1054 0.13874,0.15072 0.0407,0.057 0.0678,0.12147 0.11006,0.17735 0.035,0.0559 0.0857,0.1 0.12152,0.15553 0.0419,0.0517 0.0881,0.0969 0.14093,0.13791 0.0538,0.0538 0.0943,0.1135 0.11705,0.18711 0.038,0.0754 0.0896,0.14493 0.10117,0.23121 0.0181,0.081 0.0192,0.16517 0.0466,0.24437 0.021,0.0824 0.0212,0.17045 0.0646,0.2465 0.044,0.0844 0.074,0.16915 0.0898,0.26356 0.0107,0.0793 0.0324,0.15299 0.0751,0.22155 0.0295,0.0736 0.0756,0.14052 0.0921,0.21892 0.0221,0.0797 0.0294,0.16058 0.0454,0.24169 0.0194,0.0917 0.0188,0.18311 0.0165,0.27667 -2.6e-4,0.0926 -2.6e-4,0.18532 -0.007,0.27776 -0.007,0.0825 -0.0197,0.16401 -0.0428,0.24375 -0.004,0.0989 -0.0113,0.19805 -0.0362,0.29426 -0.0243,0.092 -0.0395,0.1858 -0.0691,0.27624 -0.0155,0.10001 -0.0462,0.19426 -0.0779,0.28995 -0.0342,0.10466 -0.0686,0.20907 -0.10221,0.31396 -0.0426,0.11409 -0.10106,0.22079 -0.14882,0.3327 -0.0352,0.0884 -0.0768,0.17483 -0.13301,0.25186 -0.0451,0.0709 -0.0954,0.13793 -0.13359,0.2134 -0.063,0.0738 -0.12833,0.14446 -0.19039,0.21898 -0.062,0.0826 -0.1363,0.15493 -0.20147,0.23506 -0.0688,0.0564 -0.1346,0.11492 -0.1978,0.17768 -0.071,0.0471 -0.13748,0.0999 -0.20653,0.14906 -0.0639,0.0529 -0.13983,0.0917 -0.20445,0.1438 -0.0598,0.0506 -0.11288,0.10719 -0.17465,0.1549 -0.0605,0.0345 -0.11366,0.076 -0.16456,0.123 -0.0298,0.0315 -0.0206,0.0262 -0.0583,0.0484 -0.2503,0.14765 -0.49093,0.30881 -0.7534,0.43179 -0.23736,0.11688 -0.0395,0.0206 0.52435,-0.30814 0.0119,-0.007 -0.0246,0.0123 -0.0361,0.0198 -0.0763,0.0493 0.0107,0.001 -0.0636,0.0448 -0.21085,0.12458 -0.42225,0.24822 -0.63337,0.37233 -0.23731,0.13105 -0.70833,0.29899 0.37459,-0.2329 -0.61105,0.35343 -1.04233,0.60369 -0.0786,0.0433 0.013,-0.008 -0.0265,0.0145 -0.0389,0.023 -0.082,0.056 0.0105,2.6e-4 -0.0662,0.0492 -0.01,0.006 -0.0202,0.0116 -0.0303,0.0175 -0.0669,0.0577 0.0133,-0.008 -0.0601,0.0404 -0.0452,0.0296 -0.0766,0.0795 -0.11617,0.11544 -0.0618,0.0528 -0.11566,0.11409 -0.17318,0.17091 -0.0581,0.0458 -0.10221,0.10481 -0.15667,0.15392 -0.0436,0.0558 -0.0993,0.10104 -0.14373,0.15644 -0.0402,0.0615 -0.0838,0.12482 -0.13789,0.17461 -0.039,0.0546 -0.0884,0.10063 -0.12023,0.16078 -0.0375,0.0887 -0.0815,0.0833 -0.1301,0.15523 -0.0495,0.058 -0.0631,0.13542 -0.11423,0.19226 -0.06,0.0506 -0.10372,0.11412 -0.1512,0.17582 -0.0387,0.0673 -0.099,0.11651 -0.14049,0.18231 -0.0349,0.0705 -0.0693,0.14067 -0.11007,0.20817 -0.0414,0.0562 -0.0675,0.12674 -0.0814,0.19468 -3e-5,0.0946 -8e-5,0.18923 -2.2e-4,0.28384 -1.3e-4,0.094 -5.3e-4,0.18803 5.3e-4,0.28205 0.001,0.0874 0.003,0.17509 0.0154,0.26171 0.015,0.0883 0.0403,0.17459 0.0392,0.26496 0.009,0.0831 0.0229,0.16404 0.0659,0.23725 0.0224,0.0706 0.0489,0.1396 0.071,0.21027 0.0271,0.07 0.0451,0.14392 0.0713,0.21424 0.0246,0.0688 0.055,0.13753 0.0953,0.19831 0.0444,0.0602 0.0865,0.12234 0.13119,0.18241 0.0469,0.0637 0.0956,0.12517 0.15427,0.17896 0.0566,0.062 0.10769,0.13034 0.17851,0.17741 0.0721,0.0507 0.13883,0.10893 0.21671,0.15106 0.0634,0.041 0.12846,0.0781 0.19812,0.10772 0.0753,0.0457 0.14478,0.10184 0.22691,0.13563 0.095,0.0397 0.19377,0.0701 0.28624,0.11601 0.14996,0.0785 0.2951,0.16611 0.4485,0.23814 0,0 -0.58815,0.38333 -0.58815,0.38333 z"
       inkscape:connector-curvature="0" />
    <path
       style="opacity:0.87;fill:#e3dbdb;fill-opacity:1;stroke:none;stroke-width:0.375;stroke-linecap:square;stroke-linejoin:miter;stroke-miterlimit:4;stroke-dasharray:none;stroke-dashoffset:0;stroke-opacity:1;paint-order:normal"
       id="path1077"
       d="m 149.30565,173.96154 c -0.1656,-0.0507 -0.33627,-0.0865 -0.49951,-0.14449 -0.0943,-0.0239 -0.17629,-0.0679 -0.25748,-0.11912 -0.0571,-0.0559 -0.12628,-0.096 -0.19024,-0.14312 -0.0794,-0.0695 -0.15924,-0.13502 -0.22282,-0.21991 -0.0812,-0.0836 -0.12901,-0.18604 -0.17937,-0.28887 -0.0452,-0.0973 -0.0772,-0.19993 -0.11414,-0.30048 -0.0281,-0.0924 -0.0515,-0.18584 -0.0778,-0.27879 -0.0233,-0.10841 -0.0428,-0.21788 -0.0573,-0.32783 -0.0145,-0.11858 -0.0194,-0.23798 -0.022,-0.35732 -0.002,-0.0972 -0.001,-0.19444 -0.001,-0.29167 1.6e-4,-0.0943 2.4e-4,-0.18863 2.7e-4,-0.28294 0.004,-0.10051 0.0464,-0.19337 0.0697,-0.29019 0.0258,-0.0862 0.0501,-0.17274 0.0735,-0.25972 0.0174,-0.10669 0.051,-0.20742 0.0883,-0.30839 0.0338,-0.0892 0.0684,-0.17784 0.10477,-0.26598 0.0363,-0.0847 0.0769,-0.16812 0.12008,-0.24958 0.0436,-0.0757 0.0896,-0.15011 0.13831,-0.22262 0.0574,-0.0845 0.11307,-0.17028 0.17334,-0.25282 0.0561,-0.0783 0.10638,-0.16018 0.15815,-0.24128 0.0384,-0.0612 0.083,-0.11895 0.13382,-0.17035 0.046,-0.0525 0.0672,-0.1203 0.10691,-0.17746 0.0596,-0.0481 0.10905,-0.10481 0.15563,-0.1653 0.0544,-0.0562 0.11257,-0.1068 0.16572,-0.16437 0.0448,-0.0526 0.0893,-0.10595 0.13881,-0.15423 0.0537,-0.0656 0.10667,-0.13089 0.16379,-0.19369 0.0618,-0.0819 0.13505,-0.15373 0.20103,-0.23199 0.0483,-0.0649 0.10507,-0.12294 0.14845,-0.19126 0.0486,-0.0577 0.10154,-0.10857 0.14035,-0.17413 0.0401,-0.0618 0.0678,-0.13018 0.11028,-0.19063 0.0362,-0.0596 0.0657,-0.12491 0.088,-0.19109 0.017,-0.0782 0.0413,-0.15463 0.0686,-0.22981 0.0242,-0.0785 0.0604,-0.1519 0.0802,-0.23175 0.0174,-0.0871 0.0183,-0.17629 0.0196,-0.26476 7.9e-4,-0.0944 2.5e-4,-0.18877 4e-5,-0.28316 0.008,-0.0859 -0.007,-0.16434 -0.0366,-0.24427 -0.0247,-0.0819 -0.0473,-0.16413 -0.0717,-0.24618 -0.008,-0.0726 -0.0525,-0.11688 -0.0974,-0.16866 -0.0383,-0.0582 -0.0833,-0.11113 -0.12547,-0.16651 -0.0416,-0.0748 -0.0882,-0.14183 -0.14534,-0.205 -0.0477,-0.0648 -0.077,-0.14242 -0.10369,-0.218 -0.0338,-0.0642 -0.0532,-0.13378 -0.0804,-0.20069 -0.0213,-0.0738 -0.0515,-0.14443 -0.0712,-0.21869 -0.0163,-0.0778 -0.0428,-0.15237 -0.0567,-0.23089 -0.0134,-0.0911 -0.0144,-0.18332 -0.0155,-0.27518 -5.3e-4,-0.0947 -2.7e-4,-0.18933 -1.4e-4,-0.284 -0.006,-0.0887 0.006,-0.17493 0.0283,-0.26053 0.0228,-0.0706 0.0578,-0.13581 0.0875,-0.20351 0.029,-0.0749 0.0717,-0.14167 0.11807,-0.20662 0.0425,-0.0542 0.0929,-0.10115 0.13936,-0.15172 0.0514,-0.0429 0.0917,-0.0943 0.1318,-0.14714 0.0308,-0.0481 0.07,-0.0898 0.1064,-0.13356 0,0 0.65144,-0.26959 0.65144,-0.26959 v 0 c -0.0433,0.0349 -0.0731,0.0812 -0.11208,0.12045 -0.035,0.0602 -0.0755,0.1143 -0.12511,0.16275 -0.0535,0.0411 -0.0972,0.0954 -0.14247,0.14494 -0.0558,0.0507 -0.0976,0.11947 -0.1265,0.1886 -0.0327,0.065 -0.0614,0.13109 -0.0897,0.19787 -0.0372,0.0728 -0.0421,0.15846 -0.0403,0.23885 -1.5e-4,0.0944 -5.3e-4,0.18885 -1.7e-4,0.28327 5.3e-4,0.0885 7.9e-4,0.17729 0.0112,0.26532 0.0116,0.0773 0.0379,0.14958 0.0541,0.22554 0.017,0.0719 0.0483,0.13858 0.0668,0.21 0.0276,0.0682 0.0475,0.13888 0.0821,0.2042 0.0221,0.067 0.0479,0.13619 0.0892,0.19345 0.0581,0.0645 0.10381,0.13502 0.14835,0.2095 0.0419,0.0536 0.0852,0.10617 0.1236,0.16241 0.0513,0.0576 0.10194,0.11597 0.11211,0.19583 0.0228,0.0809 0.0475,0.16072 0.069,0.24191 0.0326,0.0869 0.0573,0.17201 0.0478,0.2664 2e-4,0.0946 5.3e-4,0.18928 5.3e-4,0.28392 -5.3e-4,0.0923 -7.9e-4,0.185 -0.013,0.27669 -0.0144,0.085 -0.0461,0.16081 -0.0762,0.24054 -0.0256,0.0742 -0.0568,0.14767 -0.0703,0.22499 -0.0166,0.0749 -0.0508,0.14045 -0.0783,0.21139 -0.0396,0.0623 -0.0851,0.11956 -0.11104,0.19019 -0.0441,0.061 -0.069,0.13729 -0.13878,0.17682 -0.0488,0.06 0.004,-0.009 -0.0403,0.0632 -0.0295,0.0479 -0.0763,0.0845 -0.10883,0.13041 -0.0588,0.0856 -0.13806,0.15139 -0.19967,0.23469 -0.0513,0.0675 -0.11759,0.12193 -0.16129,0.1952 -0.0421,0.0544 -0.096,0.0987 -0.14063,0.15099 -0.0456,0.0656 -0.10026,0.1204 -0.1642,0.16784 -0.0553,0.0533 -0.0871,0.12811 -0.15337,0.16968 -0.0628,0.0385 -0.0783,0.10936 -0.10911,0.17234 -0.0433,0.0558 -0.0991,0.10075 -0.13959,0.15949 -0.0485,0.0846 -0.10364,0.16439 -0.15681,0.24594 -0.0573,0.0847 -0.12214,0.1642 -0.17329,0.25321 -0.0517,0.0687 -0.0925,0.14401 -0.14166,0.2134 -0.041,0.0808 -0.0824,0.16098 -0.12352,0.24187 -0.0308,0.0902 -0.074,0.17556 -0.10642,0.26532 -0.0341,0.10046 -0.0815,0.19534 -0.0909,0.30282 -0.0215,0.0865 -0.0398,0.17444 -0.0742,0.25701 -0.0183,0.0949 -0.0538,0.18358 -0.0762,0.27672 -3e-5,0.0943 -8e-5,0.18869 -2.6e-4,0.28304 -1.9e-4,0.0969 -5.3e-4,0.19388 -3e-5,0.29081 10e-4,0.11718 0.004,0.23452 0.0169,0.3511 0.0134,0.10685 0.0349,0.21211 0.0553,0.31775 0.0245,0.0917 0.0494,0.18285 0.0735,0.27459 0.0357,0.0985 0.0692,0.198 0.11091,0.29409 0.0477,0.099 0.0939,0.19639 0.1718,0.27672 0.0614,0.0774 0.13768,0.13829 0.21292,0.20181 0.0644,0.0448 0.12978,0.0878 0.18936,0.13905 0.076,0.0487 0.15935,0.0796 0.24502,0.10747 0.16422,0.0541 0.33206,0.0968 0.499,0.14154 0,0 -0.57966,0.39587 -0.57966,0.39587 z"
       inkscape:connector-curvature="0" />
    <rect
       style="display:inline;opacity:0.99999999;fill:#217867;fill-opacity:1;stroke:#222222;stroke-width:0.3;stroke-linecap:square;stroke-linejoin:miter;stroke-miterlimit:4;stroke-dasharray:none;stroke-dashoffset:0;stroke-opacity:1;paint-order:normal"
       id="rect1103"
       width="4.3014321"
       height="1.8177015"
       x="158.02756"
       y="182.54512"
       ry="0.50491554" />
  </g>
  <g
     inkscape:groupmode="layer"
     id="layer4"
     inkscape:label="arm"
     style="display:inline">
    <ellipse
       style="opacity:0.99999999;fill:#afc6e9;fill-opacity:1;stroke:#222222;stroke-width:0.90200001;stroke-linecap:butt;stroke-linejoin:miter;stroke-miterlimit:4;stroke-dasharray:none;stroke-dashoffset:0;stroke-opacity:1;paint-order:normal"
       id="path872"
       cx="191.6945"
       cy="191.38388"
       rx="37.835415"
       ry="9.921875" />
    <path
       style="fill:none;stroke:#000000;stroke-width:1.06500006;stroke-linecap:butt;stroke-linejoin:miter;stroke-miterlimit:4;stroke-dasharray:none;stroke-opacity:1"
       d="m 101.04274,79.39613 c 2.568,-4.545681 5.75436,-5.688541 11.77396,-5.688541"
       id="path884"
       inkscape:connector-curvature="0" />
    <path
       style="fill:none;stroke:#000000;stroke-width:1.07500005;stroke-linecap:butt;stroke-linejoin:miter;stroke-miterlimit:4;stroke-dasharray:none;stroke-opacity:1"
       d="m 134.99777,74.028212 c 6.02763,-0.934634 9.49299,3.495129 11.95721,7.189389"
       id="path886"
       inkscape:connector-curvature="0"
       sodipodi:nodetypes="cc" />
  </g>
  <g
     inkscape:label="eyes"
     inkscape:groupmode="layer"
     id="layer1"
     transform="translate(0,-32.416676)"
     style="display:inline">
    <ellipse
       style="opacity:0.99999999;fill:#282828;fill-opacity:1;stroke:none;stroke-width:2.0542624;stroke-linecap:round;stroke-linejoin:round;stroke-miterlimit:4;stroke-dasharray:none;stroke-dashoffset:38.35955811;stroke-opacity:1;paint-order:normal"
       id="path823"
       cx="130.47807"
       cy="218.41994"
       rx="10.777084"
       ry="20.042048"
       transform="matrix(0.77032134,-0.63765589,0.04263052,0.99909091,0,0)" />
    <ellipse
       ry="20.48366"
       rx="9.8926926"
       cy="-15.599768"
       cx="183.09036"
       id="ellipse825"
       style="opacity:0.99999999;fill:#282828;fill-opacity:1;stroke:none;stroke-width:1.98973536;stroke-linecap:round;stroke-linejoin:round;stroke-miterlimit:4;stroke-dasharray:none;stroke-dashoffset:38.35955811;stroke-opacity:1;paint-order:normal"
       transform="matrix(0.75540291,0.65526059,0.19055377,-0.98167676,0,0)" />
  </g>
</svg>
